<svg xmlns="http://www.w3.org/2000/svg" width="16.498" height="16.5" viewBox="0 0 16.498 16.5">
  <path id="home-run_3_" data-name="home-run (3)" d="M16.055,7.177h0L9.323.445a1.519,1.519,0,0,0-2.148,0L.447,7.172l-.007.007A1.518,1.518,0,0,0,1.451,9.767l.047,0h.268v4.953A1.78,1.78,0,0,0,3.544,16.5H6.178a.483.483,0,0,0,.483-.483V12.133a.812.812,0,0,1,.811-.811H9.025a.812.812,0,0,1,.811.811v3.883a.483.483,0,0,0,.483.483h2.633a1.78,1.78,0,0,0,1.778-1.778V9.769h.249a1.519,1.519,0,0,0,1.075-2.592Zm0,0" transform="translate(0)"/>
</svg>
