<svg xmlns="http://www.w3.org/2000/svg" width="19.037" height="19.037" viewBox="0 0 19.037 19.037">
  <g id="food-and-restaurant" transform="translate(0 0)">
    <path id="Path_4" data-name="Path 4" d="M356.238.511a1.75,1.75,0,0,0-2.471,0l-3.011,3.006,2.472,2.472,3.011-3.006a1.747,1.747,0,0,0,0-2.472Z" transform="translate(-337.713)" fill="#272727"/>
    <path id="Path_5" data-name="Path 5" d="M3.515,350.782l-3,3.01a1.748,1.748,0,1,0,2.472,2.471l3-3.01Z" transform="translate(0 -337.739)" fill="#272727"/>
    <path id="Path_6" data-name="Path 6" d="M91.7,83.771a.572.572,0,0,0-.81,0L83.74,90.914a.572.572,0,0,0,.008.806l4.53,4.53a.572.572,0,0,0,.811,0l7.146-7.146a.572.572,0,0,0-.008-.805Z" transform="translate(-80.47 -80.492)" fill="#272727"/>
  </g>
</svg>
