<svg xmlns="http://www.w3.org/2000/svg" width="25" height="25" viewBox="0 0 25 25">
  <g id="Group_4" data-name="Group 4" transform="translate(-1365 -570)">
    <circle id="Ellipse_2" data-name="Ellipse 2" cx="12.5" cy="12.5" r="12.5" transform="translate(1365 570)" fill="#fff"/>
    <path id="Icon_awesome-twitter" data-name="Icon awesome-twitter" d="M10.995,5.861c.008.109.008.218.008.327a7.1,7.1,0,0,1-7.146,7.146A7.1,7.1,0,0,1,0,12.206a5.2,5.2,0,0,0,.606.031,5.03,5.03,0,0,0,3.118-1.073A2.516,2.516,0,0,1,1.376,9.422a3.167,3.167,0,0,0,.474.039,2.656,2.656,0,0,0,.661-.086A2.512,2.512,0,0,1,.5,6.911V6.88A2.529,2.529,0,0,0,1.633,7.2,2.515,2.515,0,0,1,.855,3.84,7.139,7.139,0,0,0,6.034,6.468a2.835,2.835,0,0,1-.062-.575,2.514,2.514,0,0,1,4.346-1.718,4.945,4.945,0,0,0,1.594-.606,2.5,2.5,0,0,1-1.1,1.384,5.035,5.035,0,0,0,1.446-.389,5.4,5.4,0,0,1-1.26,1.3Z" transform="translate(1371.445 574.094)" fill="#272727"/>
  </g>
</svg>
